<svg width="24" height="24" viewBox="0 0 24 24" fill="none" xmlns="http://www.w3.org/2000/svg">
<path d="M16.8301 15.64C17.5001 15.2 18.3801 15.68 18.3801 16.48V17.77C18.3801 19.04 17.3901 20.4 16.2001 20.8L13.0101 21.86C12.4501 22.05 11.5401 22.05 10.9901 21.86L7.80012 20.8C6.60012 20.4 5.62012 19.04 5.62012 17.77V16.47C5.62012 15.68 6.50012 15.2 7.16012 15.63L9.22012 16.97C10.0101 17.5 11.0101 17.76 12.0101 17.76C13.0101 17.76 14.0101 17.5 14.8001 16.97L16.8301 15.64Z" fill="#B7B7B7"/>
<path d="M19.9795 6.46006L13.9895 2.53006C12.9095 1.82006 11.1295 1.82006 10.0495 2.53006L4.02953 6.46006C2.09953 7.71006 2.09953 10.5401 4.02953 11.8001L5.62953 12.8401L10.0495 15.7201C11.1295 16.4301 12.9095 16.4301 13.9895 15.7201L18.3795 12.8401L19.7495 11.9401V15.0001C19.7495 15.4101 20.0895 15.7501 20.4995 15.7501C20.9095 15.7501 21.2495 15.4101 21.2495 15.0001V10.0801C21.6495 8.79006 21.2395 7.29006 19.9795 6.46006Z" fill="#B7B7B7"/>
</svg>
