<svg width="27" height="25" viewBox="0 0 27 25" fill="none" xmlns="http://www.w3.org/2000/svg">
<path d="M23.3258 5.73C21.5816 5.57 19.8375 5.45 18.0825 5.36V5.35L17.8441 4.05C17.6816 3.13 17.4433 1.75 14.9083 1.75H12.07C9.5458 1.75 9.30747 3.07 9.13413 4.04L8.90663 5.32C7.89913 5.38 6.89163 5.44 5.88413 5.53L3.67413 5.73C3.21913 5.77 2.89413 6.14 2.93747 6.55C2.9808 6.96 3.3708 7.26 3.8258 7.22L6.0358 7.02C11.7125 6.5 17.4325 6.7 23.1741 7.23C23.2066 7.23 23.2283 7.23 23.2608 7.23C23.6725 7.23 24.03 6.94 24.0733 6.55C24.1058 6.14 23.7808 5.77 23.3258 5.73Z" fill="white"/>
<path d="M21.3324 8.64C21.0724 8.39 20.7149 8.25 20.3466 8.25H6.65322C6.28489 8.25 5.91656 8.39 5.66739 8.64C5.41822 8.89 5.27739 9.23 5.29906 9.58L5.97073 19.84C6.08989 21.36 6.24156 23.26 10.0224 23.26H16.9774C20.7582 23.26 20.9099 21.37 21.0291 19.84L21.7007 9.59C21.7224 9.23 21.5816 8.89 21.3324 8.64ZM15.2982 18.25H11.6907C11.2466 18.25 10.8782 17.91 10.8782 17.5C10.8782 17.09 11.2466 16.75 11.6907 16.75H15.2982C15.7424 16.75 16.1107 17.09 16.1107 17.5C16.1107 17.91 15.7424 18.25 15.2982 18.25ZM16.2082 14.25H10.7916C10.3474 14.25 9.97906 13.91 9.97906 13.5C9.97906 13.09 10.3474 12.75 10.7916 12.75H16.2082C16.6524 12.75 17.0207 13.09 17.0207 13.5C17.0207 13.91 16.6524 14.25 16.2082 14.25Z" fill="white"/>
</svg>
