<svg width="68" height="49" viewBox="0 0 68 49" fill="none" xmlns="http://www.w3.org/2000/svg">
<g clip-path="url(#clip0_330_1337)">
<path fill-rule="evenodd" clip-rule="evenodd" d="M36.5502 49H51.85C60.7694 49 68 41.8134 68 32.9483C68 24.8574 61.9771 18.1645 54.1445 17.0572C52.5929 7.38881 44.1646 0 34 0C22.7334 0 13.6 9.07781 13.6 20.2759L13.6 20.3004C6.01513 20.7376 0 26.9895 0 34.6379C0 42.5698 6.46949 49 14.45 49H31.4502V28.9291L27.0543 33.2982C26.7225 33.6282 26.1842 33.6282 25.8522 33.2982L23.4481 30.9087C23.1161 30.5787 23.1161 30.0438 23.4481 29.7139L32.1972 21.0181C33.1928 20.0285 34.8075 20.0285 35.8034 21.0181L44.5522 29.7139C44.8843 30.0438 44.8843 30.5787 44.5522 30.9087L42.1481 33.2982C41.8161 33.6282 41.278 33.6282 40.946 33.2982L36.5502 28.9291V49Z" fill="#FF7D30"/>
</g>
<defs>
<clipPath id="clip0_330_1337">
<rect width="68" height="49" fill="white"/>
</clipPath>
</defs>
</svg>
