<svg width="40" height="40" viewBox="0 0 40 40" fill="none" xmlns="http://www.w3.org/2000/svg">
<g clip-path="url(#clip0_348_2877)">
<mask id="mask0_348_2877" style="mask-type:alpha" maskUnits="userSpaceOnUse" x="0" y="0" width="40" height="40">
<path d="M20 40C31.0457 40 40 31.0457 40 20C40 8.9543 31.0457 0 20 0C8.9543 0 0 8.9543 0 20C0 31.0457 8.9543 40 20 40Z" fill="white"/>
</mask>
<g mask="url(#mask0_348_2877)">
<path d="M20 40C31.0457 40 40 31.0457 40 20C40 8.9543 31.0457 0 20 0C8.9543 0 0 8.9543 0 20C0 31.0457 8.9543 40 20 40Z" fill="#FFE6C8"/>
<path d="M20 20C24.1421 20 27.5 16.6421 27.5 12.5C27.5 8.35785 24.1421 5 20 5C15.8579 5 12.5 8.35785 12.5 12.5C12.5 16.6421 15.8579 20 20 20Z" fill="#FF7D30"/>
<path d="M20.25 56.5C29.5007 56.5 37 49.0007 37 39.75C37 30.4993 29.5007 23 20.25 23C10.9993 23 3.5 30.4993 3.5 39.75C3.5 49.0007 10.9993 56.5 20.25 56.5Z" fill="#FF7D30"/>
</g>
</g>
<defs>
<clipPath id="clip0_348_2877">
<rect width="40" height="40" fill="white"/>
</clipPath>
</defs>
</svg>
